<?xml version="1.0" encoding="UTF-8" standalone="no"?>
<!-- Generator: Adobe Illustrator 15.0.2, SVG Export Plug-In . SVG Version: 6.00 Build 0)  -->

<svg
   xmlns:osb="http://www.openswatchbook.org/uri/2009/osb"
   xmlns:dc="http://purl.org/dc/elements/1.1/"
   xmlns:cc="http://creativecommons.org/ns#"
   xmlns:rdf="http://www.w3.org/1999/02/22-rdf-syntax-ns#"
   xmlns:svg="http://www.w3.org/2000/svg"
   xmlns="http://www.w3.org/2000/svg"
   xmlns:sodipodi="http://sodipodi.sourceforge.net/DTD/sodipodi-0.dtd"
   xmlns:inkscape="http://www.inkscape.org/namespaces/inkscape"
   version="1.1"
   id="Layer_1"
   x="0px"
   y="0px"
   width="284.4241"
   height="73.27813"
   viewBox="0 0 284.4241 73.278131"
   enable-background="new 0 0 612 792"
   xml:space="preserve"
   inkscape:version="0.48.2 r9819"
   sodipodi:docname="logo[1].svg"><metadata
   id="metadata47"><rdf:RDF><cc:Work
       rdf:about=""><dc:format>image/svg+xml</dc:format><dc:type
         rdf:resource="http://purl.org/dc/dcmitype/StillImage" /></cc:Work></rdf:RDF></metadata><defs
   id="defs45"><linearGradient
     id="linearGradient3839"
     osb:paint="solid"><stop
       style="stop-color:#231f20;stop-opacity:1;"
       offset="0"
       id="stop3841" /></linearGradient></defs><sodipodi:namedview
   pagecolor="#ffffff"
   bordercolor="#666666"
   borderopacity="1"
   objecttolerance="10"
   gridtolerance="10"
   guidetolerance="10"
   inkscape:pageopacity="0"
   inkscape:pageshadow="2"
   inkscape:window-width="1284"
   inkscape:window-height="757"
   id="namedview43"
   showgrid="false"
   fit-margin-top="5"
   fit-margin-left="5"
   fit-margin-right="5"
   fit-margin-bottom="5"
   inkscape:zoom="5.2461474"
   inkscape:cx="58.24705"
   inkscape:cy="29.380521"
   inkscape:window-x="0"
   inkscape:window-y="0"
   inkscape:window-maximized="0"
   inkscape:current-layer="Layer_1"
   inkscape:snap-global="true"
   inkscape:snap-bbox="false" />
<path
   sodipodi:type="arc"
   style="fill:#ffffff;fill-opacity:1;stroke:none"
   id="path5283"
   sodipodi:cx="134.78592"
   sodipodi:cy="42.27737"
   sodipodi:rx="35.853054"
   sodipodi:ry="30.73119"
   d="m 170.63897,42.27737 a 35.853054,30.73119 0 1 1 -71.706105,0 35.853054,30.73119 0 1 1 71.706105,0 z"
   transform="matrix(-0.75641971,0.42917721,-0.38888799,-0.66194148,160.52265,11.823798)" /><ellipse
   transform="matrix(0.9116,-0.411,0.411,0.9116,-311.13358,-240.99734)"
   cx="199.491"
   cy="399.62399"
   rx="2.0409999"
   ry="2.224"
   id="ellipse3"
   sodipodi:cx="199.491"
   sodipodi:cy="399.62399"
   sodipodi:rx="2.0409999"
   sodipodi:ry="2.224"
   style="fill:#005691" />
<path
   d="m 38.708122,38.086265 c 1.695,3.762 -0.356,8.357 -4.583,10.262 -4.227,1.906 -9.028,0.398 -10.724,-3.363 -1.695,-3.761 0.356,-8.356 4.583,-10.261 4.227,-1.905 9.029,-0.4 10.724,3.362 z m -9.66,-2.478 c -3.355,1.512 -4.931,5.283 -3.518,8.417 1.413,3.137 5.281,4.453 8.637,2.94 3.357,-1.513 4.932,-5.283 3.519,-8.418 -1.413,-3.134 -5.28,-4.452 -8.638,-2.939 z"
   id="path5"
   inkscape:connector-curvature="0"
   style="fill:#231f20" />
<ellipse
   transform="matrix(-0.9117,0.4109,-0.4109,-0.9117,401.00202,308.98946)"
   cx="211.058"
   cy="394.41101"
   rx="2.0409999"
   ry="2.224"
   id="ellipse7"
   sodipodi:cx="211.058"
   sodipodi:cy="394.41101"
   sodipodi:rx="2.0409999"
   sodipodi:ry="2.224"
   style="fill:#005691" />
<path
   d="m 46.204122,26.511265 c 4.227,-1.904 9.028,-0.398 10.724,3.363 1.696,3.761 -0.356,8.357 -4.583,10.261 -4.227,1.905 -9.029,0.4 -10.725,-3.362 -1.696,-3.761 0.356,-8.356 4.584,-10.262 z m -3.561,9.802 c 1.413,3.135 5.281,4.453 8.638,2.94 3.356,-1.513 4.931,-5.283 3.518,-8.419 -1.413,-3.135 -5.28,-4.452 -8.637,-2.939 -3.357,1.513 -4.932,5.283 -3.519,8.418 z"
   id="path9"
   inkscape:connector-curvature="0"
   style="fill:#231f20" />
<ellipse
   transform="matrix(0.9118,-0.4107,0.4107,0.9118,-312.35798,-236.82404)"
   cx="208.783"
   cy="404.79999"
   rx="3.1289999"
   ry="1.8660001"
   id="ellipse11"
   sodipodi:cx="208.783"
   sodipodi:cy="404.79999"
   sodipodi:rx="3.1289999"
   sodipodi:ry="1.8660001"
   style="fill:#5b5b5b" />
<path
   d="m 53.639122,46.920265 c 0,0 -1.768,0.797 -7.645,3.445 -5.877,2.648 -7.645,3.445 -7.645,3.445 l 9.852,9.064 2.524,-2.012 3.181,-0.559 -0.267,-13.383 z"
   id="path13"
   inkscape:connector-curvature="0"
   style="fill:#231f20" />
<path
   d="m 61.765122,18.226265 c 0.005,10e-4 0.031,0.009 0.031,0.009 1.103,-8.180999 -3.515,-13.5139995 -7.477,-13.2239995 -3.961,0.29 -8.037,3.623 -6.734,9.6960005 0.032,-0.002 0.081,0.005 0.115,0.004 -5.25,-0.069 -10.82,1.039999 -16.21,3.468999 -5.382,2.425 -9.896,5.858 -13.319,9.827 0.019,-0.019 0.04,-0.049 0.058,-0.068 -3.688,-4.998 -8.8850001,-4.151 -11.7260001,-1.375 -2.841,2.776 -1.903,9.767 4.9570001,14.359 0,0 0.008,-0.018 0.009,-0.02 -1.043,4.667 -0.711,9.421 1.254,13.78 5.802,12.873 23.611,17.402 39.779,10.115 16.164,-7.287 24.566,-23.63 18.764,-36.503 -1.965,-4.36 -5.311,-7.759 -9.501,-10.069 z m -9.667,45.677 c -15.355,6.921 -32.324,2.495 -37.904,-9.884 -5.5780001,-12.378 2.345,-28.023 17.7,-34.944 15.353,-6.919999 32.321,-2.495 37.901,9.883 5.579,12.38 -2.343,28.026 -17.697,34.945 z"
   id="path15"
   inkscape:connector-curvature="0"
   style="fill:#000000;fill-opacity:1" />
<ellipse
   transform="matrix(0.9117,-0.4109,0.4109,0.9117,-316.60668,-233.66124)"
   cx="213.871"
   cy="416.08801"
   rx="4.96"
   ry="5.9000001"
   id="ellipse17"
   sodipodi:cx="213.871"
   sodipodi:cy="416.08801"
   sodipodi:rx="4.96"
   sodipodi:ry="5.9000001"
   style="fill:#eb8490" />
<g
   id="g19"
   transform="translate(-164.52488,-358.28974)">
	<path
   d="m 442.949,398 h -8.945 c -0.553,0 -1,0.447 -1,1 v 4.98 c 0,0.553 0.447,1 1,1 h 3.473 v 2.649 h -7.547 c -0.048,0 -0.086,-0.003 -0.117,-0.006 v -11.891 h 11.697 c 0.519,0 0.951,-0.397 0.996,-0.914 l 0.399,-4.605 c 0.024,-0.279 -0.069,-0.556 -0.259,-0.762 -0.19,-0.206 -0.457,-0.324 -0.737,-0.324 H 424.26 c -0.42,0 -0.796,0.263 -0.939,0.658 l -1.677,4.605 c -0.112,0.307 -0.066,0.648 0.12,0.916 0.188,0.267 0.493,0.426 0.819,0.426 h 1.581 l -0.644,0.564 c -0.217,0.19 -0.341,0.464 -0.341,0.751 v 11.261 c 0,1.972 2.29,5.613 5.554,5.613 h 7.666 c 0.252,0 0.494,-0.095 0.679,-0.267 l 0.398,-0.367 v 1.729 c 0,0.552 0.447,1 1,1 h 2.795 c 0.186,0 0.368,-0.052 0.526,-0.149 l 1.678,-1.038 c 0.294,-0.183 0.474,-0.505 0.474,-0.851 V 399 c 0,-0.553 -0.447,-1 -1,-1 z"
   id="path21"
   inkscape:connector-curvature="0"
   style="fill:#61788a" />
	<path
   d="m 285.634,397.051 h 2.226 c 0.477,0 0.887,-0.337 0.98,-0.804 l 0.903,-4.517 c 0.059,-0.294 -0.017,-0.599 -0.207,-0.83 -0.19,-0.232 -0.474,-0.366 -0.773,-0.366 h -5.497 l -0.49,-1.349 c -0.097,-0.266 -0.301,-0.479 -0.563,-0.585 l -3.212,-1.305 c -0.507,-0.207 -1.084,0.033 -1.297,0.536 l -1.145,2.703 h -6.266 c -0.518,0 -0.95,0.396 -0.996,0.912 l -0.402,4.517 c -0.025,0.279 0.069,0.556 0.258,0.764 0.189,0.207 0.457,0.325 0.738,0.325 h 3.906 l -6.131,14.469 c -0.104,0.248 -0.105,0.527 -0.002,0.775 0.104,0.248 0.302,0.443 0.552,0.543 l 4.015,1.607 c 0.122,0.049 0.248,0.071 0.371,0.071 0.384,0 0.749,-0.222 0.915,-0.594 l 1.301,-2.929 c 0.02,0.242 0.128,0.469 0.304,0.639 l 2.473,2.373 c 0.396,0.38 1.023,0.37 1.407,-0.021 l 4.583,-4.683 1.84,4.587 c 0.101,0.252 0.301,0.453 0.552,0.555 0.253,0.103 0.534,0.098 0.782,-0.014 l 3.614,-1.605 c 0.48,-0.213 0.713,-0.762 0.534,-1.256 l -5.273,-14.518 z m -5.852,2.772 2.586,6.445 -1.043,-1.001 c -0.396,-0.381 -1.023,-0.37 -1.407,0.021 l -4.698,4.799 4.562,-10.264 z"
   id="path23"
   inkscape:connector-curvature="0"
   style="fill:#61788a" />
	<path
   d="m 266.763,392.012 c -0.067,-1.602 -1.391,-2.884 -3.009,-2.884 h -10.527 c -0.19,0 -0.376,0.054 -0.537,0.156 l -0.743,0.473 c -0.071,-0.179 -0.194,-0.336 -0.357,-0.449 -0.268,-0.187 -0.611,-0.229 -0.917,-0.118 l -3.814,1.405 c -0.393,0.145 -0.654,0.52 -0.654,0.938 v 18.945 l -1.055,-3.569 c -0.12,-0.404 -0.468,-0.712 -0.889,-0.737 -0.423,-0.027 -0.8,0.195 -0.966,0.582 -0.089,0.127 -0.565,0.465 -1.104,0.465 -0.399,0 -0.713,-0.188 -0.989,-0.592 -0.989,-1.445 -3,-4.632 -3.874,-6.021 l 7.073,-7.165 c 0.382,-0.387 0.385,-1.008 0.006,-1.398 l -3.111,-3.212 c -0.188,-0.194 -0.448,-0.304 -0.718,-0.304 -0.308,0.006 -0.531,0.111 -0.72,0.306 l -7.735,8.025 h -0.181 v -6.729 c 0,-0.552 -0.448,-1 -1,-1 h -4.015 c -0.552,0 -1,0.448 -1,1 v 22.887 c 0,0.552 0.448,1 1,1 h 4.015 c 0.552,0 1,-0.448 1,-1 v -8.034 h 0.314 c 0.711,0.928 2.574,3.379 4.294,5.803 2.513,3.542 5.522,4.115 9.472,1.678 0.178,-0.11 0.312,-0.27 0.391,-0.451 0.44,1.119 1.531,1.913 2.804,1.913 h 15.253 c 0.339,0 0.639,-0.169 0.819,-0.427 0.864,-0.515 1.43,-1.441 1.475,-2.456 0.002,-0.013 0.004,-0.026 0.005,-0.038 0.004,-0.037 0.006,-0.074 0.006,-0.11 V 392.16 c 0,-0.035 -0.002,-0.07 -0.005,-0.104 -0.003,-0.015 -0.005,-0.029 -0.007,-0.044 z m -5.804,3.432 v 12.455 h -8.941 v -12.455 h 8.941 z"
   id="path25"
   inkscape:connector-curvature="0"
   style="fill:#61788a" />
	<path
   d="m 310.145,389.128 h -3.915 c -0.552,0 -1,0.448 -1,1 v 5.458 l -0.859,-0.77 c -2.108,-1.889 -3.719,-3.107 -7.379,-3.466 v -1.222 c 0,-0.552 -0.448,-1 -1,-1 h -3.915 c -0.552,0 -1,0.448 -1,1 v 22.795 c 0,0.552 0.448,1 1,1 h 3.915 c 0.552,0 1,-0.448 1,-1 v -14.997 c 0.653,0.136 1.378,0.389 2.045,0.853 1.871,1.302 5.204,4.614 6.194,5.612 v 3.304 c 0,0.082 -0.002,0.149 -0.005,0.204 -0.029,0 -0.062,10e-4 -0.098,10e-4 -0.552,0 -1,0.448 -1,1 v 4.023 c 0,0.552 0.448,1 1,1 h 3.061 c 1.769,0 2.957,-1.452 2.957,-3.614 v -20.181 c -0.001,-0.552 -0.449,-1 -1.001,-1 z"
   id="path27"
   inkscape:connector-curvature="0"
   style="fill:#61788a" />
	<path
   d="m 419.978,389.128 h -3.915 c -0.553,0 -1,0.448 -1,1 v 5.458 l -0.859,-0.77 c -2.108,-1.889 -3.719,-3.107 -7.379,-3.466 v -1.222 c 0,-0.552 -0.447,-1 -1,-1 h -3.914 c -0.553,0 -1,0.448 -1,1 v 22.795 c 0,0.552 0.447,1 1,1 h 3.914 c 0.553,0 1,-0.448 1,-1 v -14.997 c 0.652,0.136 1.378,0.389 2.044,0.853 1.872,1.302 5.204,4.614 6.194,5.612 v 3.304 c 0,0.082 -0.002,0.149 -0.005,0.204 -0.029,0 -0.062,10e-4 -0.098,10e-4 -0.553,0 -1,0.448 -1,1 v 4.023 c 0,0.552 0.447,1 1,1 h 3.061 c 1.769,0 2.957,-1.452 2.957,-3.614 v -20.181 c 0,-0.552 -0.448,-1 -1,-1 z"
   id="path29"
   inkscape:connector-curvature="0"
   style="fill:#61788a" />
	<path
   d="m 390.956,389.128 h -14.694 c -0.553,0 -1,0.448 -1,1 v 3.647 c 0,0.552 0.447,1 1,1 h 3.996 l -0.585,0.645 c -0.166,0.184 -0.259,0.423 -0.259,0.671 v 12.913 c 0,4.406 3.445,5.977 6.67,5.977 0.486,0 0.902,-0.35 0.985,-0.83 l 0.719,-4.152 c 0.07,-0.408 -0.122,-0.82 -0.478,-1.032 -0.014,-0.009 -1.424,-0.882 -1.424,-2.014 v -12.177 h 5.069 c 0.553,0 1,-0.448 1,-1 v -3.647 c 0.001,-0.553 -0.446,-1.001 -0.999,-1.001 z"
   id="path31"
   inkscape:connector-curvature="0"
   style="fill:#61788a" />
	<path
   d="m 371.625,389.643 c -0.176,-0.317 -0.511,-0.515 -0.874,-0.515 h -13.656 c -0.418,0 -0.791,0.26 -0.938,0.651 l -1.358,3.647 c -0.114,0.307 -0.07,0.65 0.116,0.919 0.186,0.269 0.494,0.43 0.821,0.43 h 1.016 l -0.876,0.963 c -0.358,0.394 -0.346,1 0.03,1.377 l 10.205,10.274 h -4.076 l -0.822,-1.294 c -0.259,-0.404 -0.766,-0.57 -1.212,-0.393 l -4.233,1.677 c -0.247,0.098 -0.445,0.29 -0.55,0.534 -0.105,0.243 -0.109,0.52 -0.011,0.766 0.78,1.958 2.363,5.243 4.203,5.243 h 10.941 c 0.229,0 0.452,-0.079 0.631,-0.224 l 2.476,-2.012 c 0.233,-0.19 0.369,-0.475 0.369,-0.776 v -3.217 c 0,-0.764 0,-1.714 -0.931,-2.647 -0.476,-0.477 -6.857,-7.085 -9.934,-10.272 h 4.032 l 0.332,0.994 c 0.16,0.481 0.664,0.763 1.15,0.663 l 4.871,-1.008 c 0.312,-0.064 0.574,-0.273 0.707,-0.562 0.133,-0.289 0.119,-0.624 -0.035,-0.902 l -2.394,-4.316 z"
   id="path33"
   inkscape:connector-curvature="0"
   style="fill:#61788a" />
	<path
   d="m 350.921,389.128 h -10.527 c -0.19,0 -0.377,0.054 -0.537,0.156 l -0.742,0.473 c -0.071,-0.179 -0.194,-0.336 -0.356,-0.449 -0.268,-0.187 -0.61,-0.231 -0.918,-0.118 l -3.814,1.405 c -0.394,0.145 -0.654,0.52 -0.654,0.938 v 19.378 c 0,1.661 1.351,3.012 3.012,3.012 h 15.253 c 0.339,0 0.639,-0.169 0.819,-0.427 0.862,-0.514 1.429,-1.438 1.475,-2.451 0.008,-0.051 0.012,-0.102 0.012,-0.153 V 392.16 c 0,-0.051 -0.004,-0.102 -0.012,-0.152 -0.072,-1.6 -1.395,-2.88 -3.011,-2.88 z m -2.794,6.316 v 12.455 h -8.941 v -12.455 h 8.941 z"
   id="path35"
   inkscape:connector-curvature="0"
   style="fill:#61788a" />
	<path
   d="m 332.131,397.108 h -0.71 v -6.98 c 0,-0.552 -0.447,-1 -1,-1 h -3.914 c -0.553,0 -1,0.448 -1,1 v 6.98 h -6.833 v -6.98 c 0,-0.552 -0.447,-1 -1,-1 h -3.915 c -0.552,0 -1,0.448 -1,1 v 22.795 c 0,0.552 0.448,1 1,1 h 3.915 c 0.553,0 1,-0.448 1,-1 v -10.011 l 0.196,0.152 c 0.176,0.137 0.392,0.21 0.613,0.21 h 6.023 v 4.42 c 0,0.082 -0.002,0.149 -0.005,0.204 -0.029,0 -0.062,10e-4 -0.099,10e-4 -0.553,0 -1,0.448 -1,1 v 4.023 c 0,0.552 0.447,1 1,1 h 3.061 c 1.769,0 2.957,-1.452 2.957,-3.614 v -7.034 h 0.71 c 0.553,0 1,-0.448 1,-1 v -4.166 c 10e-4,-0.551 -0.446,-1 -0.999,-1 z"
   id="path37"
   inkscape:connector-curvature="0"
   style="fill:#61788a" />
	<path
   d="m 398.331,389.144 -3.916,0.703 c -0.477,0.085 -0.823,0.5 -0.823,0.984 v 22.092 c 0,0.552 0.447,1 1,1 h 3.916 c 0.553,0 1,-0.448 1,-1 v -22.795 c 0,-0.296 -0.131,-0.577 -0.358,-0.767 -0.227,-0.19 -0.527,-0.269 -0.819,-0.217 z"
   id="path39"
   inkscape:connector-curvature="0"
   style="fill:#61788a" />
</g>
<path
   stroke-miterlimit="10"
   d="m 79.665122,48.902265 1.305,4.417 c -3.413,2.107 -5.922,1.707 -8.131,-1.405 -2.209,-3.112 -4.617,-6.224 -4.617,-6.224 h -1.807 v 9.034 h -4.015 v -22.887 h 4.015 v 7.729 h 1.606 l 8.031,-8.332 3.111,3.212 -7.628,7.729 c 0,0 3.011,4.818 4.316,6.726 1.305,1.908 3.513,0.704 3.814,10e-4 z m 31.622998,3.719 2.473,2.374 4.818,-4.923 -2.473,-2.374 -4.818,4.923 z m 12.046,-14.861 0.903,-4.517 h -6.197 l -0.729,-2.007 -3.212,-1.305 -1.404,3.312 h -6.928 l -0.402,4.517 h 5.416 l -6.71999,15.86 4.01499,1.606 7.227,-16.262 6.525,16.262 3.614,-1.606 -5.761,-15.86 h 3.653 z m 18.371,1.775 c -0.663,-0.593 -1.484,-1.33 -2.527,-2.264 -2.133,-1.911 -3.661,-3.065 -7.712,-3.284 v -2.149 h -3.915 v 22.795 h 3.915 v -16.13 c 1.014,0.053 2.384,0.309 3.616,1.164 2.309,1.606 6.623,6.023 6.623,6.023 v 3.714 c 0,1.104 -0.3,1.205 -1.103,1.205 v 4.023 c 0,0 1.805,0 3.061,0 1.256,0 1.957,-1.104 1.957,-2.614 0,-1.51 0,-2.614 0,-2.614 v -17.566 h -3.915 v 7.697 z m 88.362,15.098 h 3.916 v -22.795 l -3.916,0.703 v 22.092 z m -64.171,-22.795 h -3.914 v 7.98 h -8.833 v -7.98 h -3.915 v 22.795 h 3.915 v -12.054 l 1.81,1.405 h 7.023 v 5.42 c 0,1.104 -0.3,1.205 -1.104,1.205 v 4.023 c 0,0 1.806,0 3.061,0 1.256,0 1.957,-1.104 1.957,-2.614 0,-1.51 0,-2.614 0,-2.614 v -5.42 h 1.71 v -4.166 h -1.71 v -7.98 z m 85.641,7.697 c -0.662,-0.594 -1.484,-1.33 -2.526,-2.264 -2.133,-1.911 -3.661,-3.065 -7.712,-3.284 v -2.149 h -3.914 v 22.795 h 3.914 v -16.13 c 1.015,0.053 2.385,0.309 3.615,1.164 2.31,1.606 6.623,6.023 6.623,6.023 v 3.714 c 0,1.104 -0.299,1.205 -1.103,1.205 v 4.023 c 0,0 1.806,0 3.061,0 1.255,0 1.957,-1.104 1.957,-2.614 0,-1.51 0,-2.614 0,-2.614 v -17.566 h -3.915 v 7.697 z m -150.296,-5.685 c 0,0.011 0.007,0.011 0.008,0.02 v 18.732 c -0.001,0.009 -0.008,0.009 -0.008,0.02 0,0.858 -0.54,1.586 -1.297,1.875 v 0.137 h -0.714998 -1.794 -10.941 -1.803 c -1.111,0 -2.012,-0.9 -2.012,-2.012 v -19.378 l 3.814,-1.405 v 1.405 l 2.208,-1.405 h 8.733 1.794 c 1.111998,-0.001 2.012998,0.899 2.012998,2.011 z m -3.806998,16.759 v -14.455 h -10.941 v 14.455 h 10.941 z m 90.973998,-16.759 c 0,0.011 0.007,0.011 0.009,0.02 v 18.732 c -0.002,0.009 -0.009,0.009 -0.009,0.02 0,0.858 -0.54,1.586 -1.297,1.875 v 0.137 h -0.715 -1.794 -10.941 -1.803 c -1.111,0 -2.012,-0.9 -2.012,-2.012 v -19.378 l 3.814,-1.405 v 1.405 l 2.208,-1.405 h 8.733 1.794 c 1.111,-0.001 2.013,0.899 2.013,2.011 z m -3.806,16.759 v -14.455 h -10.941 v 14.455 h 10.941 z m 27.135,-15.124 h 6.252 l -2.1,2.316 c 0,0 0,9.054 0,12.913 0,3.859 3.114,4.977 5.67,4.977 l 0.719,-4.153 c 0,0 -1.916,-1.118 -1.916,-2.875 0,-1.382 0,-9.692 0,-13.177 h 6.069 v -3.647 h -14.694 v 3.646 z m -7.987,1.677 4.871,-1.008 -2.396,-4.316 h -13.656 l -1.358,3.647 h 3.277 l -2.398,2.636 11.899,11.979 h -7.028 l -1.117,-1.757 -4.233,1.677 c 0,0 1.838,4.613 3.274,4.613 1.436,0 10.941,0 10.941,0 l 2.476,-2.012 c 0,0 0,-2.521 0,-3.217 0,-0.696 0,-1.301 -0.639,-1.94 -0.639,-0.639 -11.58,-11.979 -11.58,-11.979 h 7.107 l 0.56,1.677 z m 65.729,3.548 v 4.98 h 4.473 v 4.649 c -2.414,0 -7.985,0 -8.547,0 -0.719,0 -1.117,-0.32 -1.117,-0.936 0,-0.48 0,-9.17 0,-12.961 h 12.697 l 0.399,-4.605 h -17.649 l -1.677,4.605 h 4.239 l -2.643,2.315 c 0,0 0,9.744 0,11.261 0,1.517 1.918,4.613 4.554,4.613 0.878,0 7.666,0 7.666,0 l 2.077,-1.922 v 4.018 h 2.795 l 1.678,-1.038 v -14.979 h -8.945 z"
   id="path41"
   inkscape:connector-curvature="0"
   style="fill:#99bedb;stroke:#99bedb;stroke-width:0.5;stroke-linejoin:round;stroke-miterlimit:10" />
</svg>